PathFileType	4	(X/Y/Z)	W12_1_OpenSim.trc																																																																																																				
DataRate	CameraRate	NumFrames	NumMarkers	Units	OrigDataRate	OrigDataStartFrame	OrigNumFrames																																																																																																
100	100	8	34	mm	100	1	2962																																																																																																
Frame#	Time	R.ASIS			R.PSIS			S2			L.PSIS			L.ASIS			R.TH1			R.TH2			R.TH3			R.Knee			R.SH1			R.SH2			R.SH3			R.SH4			R.Ankle			R.RFoot			R.Heel			R.MT5			R.MT1			L.TH1			L.TH2			L.TH3			L.TH4			L.Knee			L.SH1			L.SH2			L.SH3			L.Ankle			L.RFoot			L.Heel			L.MT5			L.MT1			T.Top			T.Lat			T.Bot		
		X1	Y1	Z1	X2	Y2	Z2	X3	Y3	Z3	X4	Y4	Z4	X5	Y5	Z5	X6	Y6	Z6	X7	Y7	Z7	X8	Y8	Z8	X9	Y9	Z9	X10	Y10	Z10	X11	Y11	Z11	X12	Y12	Z12	X13	Y13	Z13	X14	Y14	Z14	X15	Y15	Z15	X16	Y16	Z16	X17	Y17	Z17	X18	Y18	Z18	X19	Y19	Z19	X20	Y20	Z20	X21	Y21	Z21	X22	Y22	Z22	X23	Y23	Z23	X24	Y24	Z24	X25	Y25	Z25	X26	Y26	Z26	X27	Y27	Z27	X28	Y28	Z28	X29	Y29	Z29	X30	Y30	Z30	X31	Y31	Z31	X32	Y32	Z32	X33	Y33	Z33	X34	Y34	Z34
1	0	901.9697	974.6143	-442.6989	690.9253	1010.9066	-471.9834	675.023	1005.3024	-521.6594	679.7757	1013.3892	-573.7331	874.3487	976.748	-675.9525	932.7256	723.2812	-374.9409	853.7233	697.1246	-374.2209	887.3084	595.4003	-390.8139	943.0987	475.7568	-414.6582	970.7804	385.9814	-406.6843	970.8183	272.8861	-403.86	889.2834	390.062	-409.3174	889.0107	277.2362	-397.9755	938.3252	62.8837	-441.0432	969.4986	18.3292	-431.8629	887.4265	32.7681	-493.7602	1058.4393	14.3561	-408.323	1099.6527	24.6641	-500.8532	824.3966	691.1942	-717.519	802.6019	584.9264	-723.9483	744.1577	705.1708	-737.066	724.618	596.2908	-736.6626	702.646	472.4956	-723.8129	638.1971	363.7975	-726.248	577.1371	420.9307	-724.5256	505.5842	338.4473	-708.3011	404.6683	182.5401	-679.812	387.3009	114.0379	-680.9609	362.2256	203.0019	-627.4351	428.9046	40.2515	-692.004	470.6428	35.3183	-609.7821	832.0452	336.8413	-442.7033	817.4695	339.7501	-477.2282	839.9685	306.2659	-462.9828
2	0.01	903.568	976.4905	-441.4662	692.2056	1012.4369	-469.8461	676.162	1006.648	-519.353	680.6463	1014.3367	-571.6263	874.6275	977.9114	-674.5832	931.881	723.0756	-373.4699	852.3469	698.3423	-372.7538	884.7018	595.7147	-390.0023	938.8934	476.1424	-413.5834	964.0978	385.208	-405.6639	962.1338	272.2761	-403.1818	882.8602	390.7649	-409.0833	880.5813	278.5631	-398.2072	926.6663	62.6472	-441.0271	957.3624	18.1474	-431.8663	875.4836	32.9416	-493.9126	1046.5403	13.9756	-408.3635	1088.0975	23.9723	-501.3463	830.1918	691.7291	-717.4845	810.9583	585.13	-725.2594	749.3149	703.7873	-736.6519	732.606	594.7214	-737.3015	713.7695	471.0204	-725.2054	646.8968	364.5295	-726.9258	587.6884	423.4448	-725.1332	513.6935	343.1961	-707.9115	408.7256	192.0772	-678.7608	387.5104	125.3679	-680.3856	367.5977	214.6895	-625.8755	424.9692	49.1439	-690.8795	466.4614	40.4725	-610.4973	824.8908	338.5936	-443.1201	810.7526	341.7732	-477.7516	831.2226	307.2888	-462.6187
3	0.02	904.816	977.9339	-440.378	693.365	1013.9424	-467.6568	676.8817	1007.9307	-517.0098	681.2385	1015.2332	-569.4139	874.3083	978.6149	-673.4686	930.6431	722.785	-372.4826	850.4667	699.5634	-371.8166	881.9012	596.0431	-389.2099	933.1715	475.9011	-412.5963	956.7852	384.2638	-404.9348	953.0397	271.5511	-402.4682	875.9258	391.598	-408.6679	871.4844	279.0978	-398.1233	915.4049	62.6632	-440.7978	945.295	18.1382	-431.7956	862.4473	32.9585	-493.3453	1034.1783	13.7735	-408.0241	1076.4546	23.636	-501.5502	836.1999	692.4352	-717.4911	819.3321	585.444	-725.9943	755.192	702.5173	-736.1617	740.6737	593.2207	-737.4709	724.9501	469.9218	-726.3365	656.7281	365.1982	-727.6821	598.9851	425.9404	-725.6099	522.8359	347.9503	-707.5569	413.8421	201.6287	-677.3184	389.6032	136.6515	-678.1783	374.2278	226.2828	-623.8031	422.6893	58.9548	-690.5566	464.7106	46.3407	-611.869	817.2978	340.2776	-443.0872	803.3524	343.575	-477.9083	822.6251	309.2364	-462.5026
4	0.03	906.0284	979.4308	-439.5444	694.3791	1015.5814	-465.4308	677.6763	1009.3045	-514.6695	681.7316	1016.4899	-567.0279	873.315	978.964	-672.7279	928.8657	721.5925	-371.2565	849.1695	701.3275	-371.601	878.4087	596.8303	-388.2298	927.1232	475.7982	-411.8152	949.6318	383.6809	-404.2857	943.9731	270.8617	-402.043	868.5317	392.219	-407.964	862.6301	279.7206	-397.5274	903.1406	62.7303	-441.0537	933.1481	17.8803	-431.7052	850.2933	32.9576	-493.1419	1022.0145	13.6354	-407.938	1064.1043	22.9383	-501.5906	842.1923	693.8333	-717.2369	828.3096	586.2632	-726.5063	760.6848	701.9474	-735.573	748.7649	592.3883	-737.701	736.3432	469.4167	-727.2387	666.861	366.2773	-727.6696	610.7023	428.2784	-726.2107	532.6865	352.5608	-706.9219	419.5939	210.2991	-675.1119	392.9924	147.3816	-676.3602	383.2649	237.9936	-621.1422	422.9304	68.6328	-690.6788	466.6764	52.7383	-615.13	809.0257	341.7432	-442.2219	795.168	345.2835	-477.1618	814.3102	310.4603	-461.9977
5	0.04	906.9959	980.7236	-438.9627	695.0606	1017.1696	-463.1627	678.1783	1010.7716	-512.4003	681.8782	1017.6347	-564.7372	873.8031	980.6333	-671.8156	926.6598	721.4904	-370.8227	846.7711	702.5263	-370.7834	873.6042	598.0616	-387.5413	920.9614	476.0104	-411.1479	941.9211	383.0428	-403.8136	935.0759	270.4392	-401.8889	860.8579	392.5097	-406.8721	853.833	280.1433	-396.5964	891.0789	62.6996	-440.757	920.9567	17.7459	-431.652	838.2421	33.0431	-492.9134	1009.9748	13.387	-407.6565	1052.0472	22.8445	-501.7652	848.1384	695.5503	-717.2464	836.8438	587.9905	-726.7841	766.7578	702.0488	-735.0986	757.9076	591.9019	-737.7193	747.9011	469.46	-727.8822	677.2649	367.2599	-727.4913	622.5424	430.6996	-726.8	542.696	357.0822	-706.4302	425.8136	219.742	-672.2895	397.9916	157.5221	-674.3734	390.736	246.8288	-616.9507	426.3687	78.5935	-692.2529	472.0614	58.8922	-618.6371	800.5534	342.8492	-440.539	786.3293	346.4033	-475.3768	805.3773	311.273	-460.5499
6	0.05	907.6342	981.7145	-438.4314	695.6882	1018.8328	-461.0441	678.4	1012.0801	-510.1524	681.9314	1018.9009	-562.5453	873.4688	981.7102	-671.0427	924.363	721.3903	-370.3038	843.9736	703.8294	-369.8235	869.0602	598.7788	-386.5066	914.6717	476.0953	-410.3228	933.9247	382.4629	-403.4233	926.0704	269.9136	-401.6413	853.097	392.7526	-405.5416	844.613	280.2699	-395.4512	879.1458	62.7018	-440.8491	909.5575	17.7868	-431.4381	825.79	33.4458	-492.3628	997.9618	13.2659	-407.4373	1039.7739	22.8431	-501.7396	854.3589	697.8417	-717.2831	845.2613	589.9761	-727.2236	772.5931	702.6547	-734.3858	766.0452	592.3526	-737.7115	760.4683	469.9515	-728.2868	687.119	368.8897	-727.0053	633.5129	433.4584	-726.3999	553.3353	361.1357	-705.5599	433.6546	227.6872	-669.416	405.4956	166.7035	-672.6227	397.5171	253.7288	-612.9572	432.945	88.4733	-694.2543	479.3299	65.2735	-621.8553	791.7891	343.7937	-438.8502	777.3099	347.4915	-473.7848	796.3731	312.0752	-459.3395
7	0.06	907.933	983.0028	-437.8606	696.0105	1020.4801	-459.1342	678.5167	1013.8377	-508.0736	681.974	1020.4238	-560.6279	872.819	982.8168	-670.5298	921.9045	721.84	-369.8426	841.0112	705.0466	-368.6699	864.2091	599.6185	-385.1579	904.6317	474.3535	-409.2629	925.5398	382.0818	-402.7566	917.0447	270.4631	-401.3466	844.5654	393.1642	-404.644	835.5499	280.842	-394.9886	867.1122	62.7	-440.5033	897.2736	18.1008	-431.6194	813.5918	33.5678	-492.0663	985.7757	13.068	-407.1889	1027.797	22.8183	-501.5657	860.5166	700.8162	-717.0769	853.6768	592.8276	-727.4639	778.4896	703.6577	-733.9181	774.4479	593.2826	-737.79	771.8074	471.2357	-728.6639	698.036	371.1612	-727.1064	644.9459	436.3663	-725.8696	563.9814	364.6818	-704.2891	442.6789	234.5226	-666.7161	414.8828	174.51	-671.3235	406.6587	259.5215	-609.407	441.6836	96.9921	-696.1707	488.8025	71.1063	-624.7023	782.6151	344.8182	-437.6582	768.1487	348.8084	-472.3518	786.5939	313.1567	-458.4536
8	0.07	907.9399	984.1482	-437.2427	696.1438	1022.0656	-457.4255	678.5827	1015.3661	-506.3254	681.9846	1021.9151	-558.7941	872.5214	984.2654	-669.658	919.0765	721.8742	-369.44	838.7561	707.8511	-367.6428	859.1914	600.4807	-383.7598	898.0781	474.5938	-408.5929	916.4596	381.6518	-401.9036	906.8356	270.252	-400.6806	835.273	393.7225	-403.6563	825.3554	281.336	-394.5375	855.3765	62.8253	-440.173	885.33	17.983	-431.5883	801.658	34.0123	-492.2535	973.5707	12.8648	-406.744	1015.7058	22.9807	-501.2938	866.1202	703.8931	-716.8171	861.429	595.7566	-727.8975	783.9604	704.9805	-733.6509	782.8038	594.4376	-738.06	782.77	472.9253	-729.1116	708.6549	373.6788	-727.148	656.3373	439.0624	-724.8527	574.9021	368.2835	-702.4326	452.5463	239.9116	-664.5476	425.0493	180.4384	-670.196	416.5113	263.8018	-606.3588	452.447	103.9898	-697.5189	500.1796	76.0078	-627.2264	773.3248	345.8489	-437.2604	758.8171	350.079	-471.9164	777.2911	314.1516	-457.9984
